<?xml version="1.0" encoding="iso-8859-1"?>
<!-- Generator: Adobe Illustrator 19.0.0, SVG Export Plug-In . SVG Version: 6.00 Build 0)  -->
<!-- License: CC0. Made by SVG Repo: https://www.svgrepo.com/svg/289106/crab -->
<svg version="1.1" id="Layer_1" xmlns="http://www.w3.org/2000/svg" xmlns:xlink="http://www.w3.org/1999/xlink" x="0px" y="0px"
	 viewBox="0 0 512.001 512.001" style="enable-background:new 0 0 512.001 512.001;" xml:space="preserve">
<g>
	<g>
		<path d="M317.025,199.953c-0.689-0.119-1.383-0.237-2.08-0.352c-5.782-0.954-11.253,2.963-12.209,8.751
			c-0.956,5.788,2.962,11.253,8.75,12.208c0.642,0.106,1.281,0.214,1.916,0.324c0.613,0.106,1.221,0.157,1.824,0.157
			c5.071,0,9.559-3.645,10.453-8.811C326.68,206.45,322.805,200.953,317.025,199.953z"/>
	</g>
</g>
<g>
	<g>
		<path d="M501.405,197.54c15.843-20.739,13.781-49.434-5.253-73.1c-23.059-28.673-69.812-46.657-122.279-22.201
			c-4.144,1.932-6.57,6.304-6.046,10.846c0.524,4.543,3.915,8.244,8.39,9.183c1.721,0.36,41.399,9.106,45.428,44.588
			c-20.251,1.288-33.883-17.874-34.503-18.764c-2.587-3.786-7.314-5.485-11.72-4.211c-4.406,1.273-7.497,5.232-7.664,9.815
			c-1.655,45.164,25.595,73.358,53.335,81.266c5.635,1.607,11.18,2.386,16.498,2.386c16.65,0,31.059-7.639,38.939-21.442
			c0.369-0.646,0.717-1.299,1.046-1.959c0.965-0.272,1.92-0.578,2.867-0.917c8.124,18.151,9.216,34.028,3.186,47.284
			c-9.541,20.974-34.612,31.983-48.463,36.629c1.966-5.373,2.832-10.255,2.647-14.734c0.016-0.24,0.034-0.48,0.034-0.724
			c0-1.073-0.17-2.103-0.465-3.078c-0.437-2.331-1.178-4.531-2.235-6.548c-8.94-17.092-32.358-48.275-88.767-65.091
			c-5.622-1.676-11.537,1.523-13.213,7.144c-1.676,5.622,1.523,11.537,7.144,13.213c39.354,11.731,59.789,30.759,70.128,45.112
			c-14.892,1.14-39.183,2.741-70.55,3.924c-4.614-11.81-16.173-20.252-29.499-20.252c-13.972,0-25.85,9.11-30.026,21.7
			c-8.318,0.088-16.356,0.132-24.363,0.132c-7.892,0-15.778-0.041-23.551-0.122c-4.173-12.595-16.053-21.71-30.03-21.71
			c-13.336,0-24.894,8.457-29.499,20.287c-31.761-1.19-56.503-2.825-71.348-3.958c15.889-21.961,56.332-55.89,154.426-55.89
			c8.632,0,17.1,0.267,25.17,0.792c5.845,0.364,10.908-4.055,11.289-9.909c0.381-5.853-4.055-10.908-9.909-11.289
			c-8.527-0.555-17.459-0.837-26.551-0.837c-51.289,0-93.784,8.827-126.303,26.236c-30.329,16.236-45.476,36.433-52.839,50.511
			c-1.049,2.002-1.789,4.176-2.227,6.476c-0.31,0.997-0.478,2.058-0.478,3.158c0,0.245,0.018,0.486,0.035,0.728
			c-0.183,4.48,0.682,9.361,2.647,14.731c-13.859-4.648-38.924-15.657-48.464-36.629c-6.03-13.255-4.938-29.133,3.186-47.283
			c0.946,0.339,1.901,0.645,2.867,0.917c0.329,0.659,0.677,1.311,1.045,1.955c7.882,13.807,22.29,21.445,38.941,21.444
			c5.316,0,10.863-0.78,16.497-2.386c27.74-7.906,54.99-36.102,53.335-81.266c-0.168-4.583-3.259-8.542-7.664-9.815
			c-4.406-1.272-9.132,0.425-11.72,4.211c-0.155,0.226-13.973,20.022-34.502,18.753c4.045-35.475,43.706-44.218,45.392-44.57
			c4.495-0.91,7.898-4.603,8.438-9.158c0.541-4.554-1.903-8.941-6.059-10.878c-52.468-24.458-99.22-6.472-122.279,22.201
			c-19.034,23.667-21.096,52.361-5.252,73.102c0.96,1.258,1.991,2.437,3.054,3.58c-12.14,25.258-13.686,48.132-4.569,68.084
			c17.935,39.253,70.662,50.801,72.898,51.273c0.3,0.064,0.598,0.104,0.896,0.141c-50.193,15.132-50.201,68.329-50.201,90.006
			c0,5.866,4.755,10.621,10.621,10.621s10.621-4.755,10.621-10.621c0-40.893,8.69-68.923,50.364-72.462
			c3.697,4.096,7.651,8.019,11.801,11.706c0.046,0.041,0.096,0.075,0.142,0.115c0.028,0.023,0.056,0.046,0.084,0.069
			c5.904,5.24,12.284,10.105,19.072,14.583c-8.768,2.687-15.915,6.671-21.537,12.007c-8.904,8.451-13.419,19.884-13.419,33.982
			c0,5.866,4.755,10.621,10.621,10.621s10.621-4.755,10.621-10.621c0-8.625,0.006-28.769,46.04-28.936
			c11.2,4.637,23.068,8.407,35.461,11.217c0.026,0.006,0.051,0.012,0.076,0.018c0.03,0.006,0.058,0.014,0.087,0.021
			c17.088,3.871,34.808,5.833,52.668,5.833c17.831,0,35.545-1.959,52.655-5.82c12.457-2.819,24.383-6.609,35.636-11.269
			c46.036,0.166,46.043,20.312,46.043,28.936c0,5.866,4.755,10.621,10.621,10.621c5.866,0,10.621-4.755,10.621-10.621
			c0-14.098-4.515-25.53-13.419-33.982c-5.623-5.336-12.77-9.321-21.54-12.008c6.67-4.399,12.94-9.175,18.756-14.308
			c0.285-0.221,0.554-0.459,0.815-0.706c4.093-3.661,7.961-7.499,11.536-11.458c41.671,3.54,50.36,31.569,50.36,72.461
			c0,5.866,4.755,10.621,10.621,10.621c5.866,0,10.621-4.755,10.621-10.621c0-21.677-0.007-74.874-50.201-90.006
			c0.298-0.037,0.597-0.078,0.896-0.141c2.236-0.473,54.963-12.02,72.898-51.273c9.117-19.953,7.571-42.826-4.57-68.087
			C499.413,199.978,500.444,198.798,501.405,197.54z M119.252,180.816c-6.464,18.244-20.223,29.743-34.166,33.717
			c-7.688,2.19-16.93,2.413-23.973-1.783c10.209-3.895,19.515-11.973,24.79-24.988C98.531,189.32,109.895,186.018,119.252,180.816z
			 M32.403,137.753c11.847-14.731,32.036-25.691,56.557-25.691c4.55,0,9.247,0.377,14.069,1.178c-0.3,0.185-0.601,0.375-0.902,0.565
			c-20.116,12.776-31.59,31.329-33.182,53.662c-0.137,1.956-0.393,3.866-0.76,5.678c-0.001,0.004-0.002,0.01-0.003,0.015
			c-3.265,16.193-14.777,22.22-24.751,21.015c-3.671-0.445-7.268-1.865-10.4-4.104c-2.058-1.473-3.927-3.299-5.553-5.425
			C17.776,171.944,19.709,153.537,32.403,137.753z M127.858,331.843c-3.846-3.586-7.482-7.387-10.809-11.355
			c-10.425-12.44-15.885-21.198-18.714-27.186c14.822,1.154,40.405,2.877,74.043,4.131c3.705,11.232,13.535,19.699,25.519,21.424
			C156.111,332.388,134.536,332.35,127.858,331.843z M198.741,369.889c-16.117-4.429-31.067-10.658-44.398-18.467
			c13.314-1.99,30.946-5.962,53.572-13.491C205.394,347.556,202.544,358.136,198.741,369.889z M212.812,287.644
			c-0.003,0.065-0.005,0.131-0.007,0.195c-0.154,5.572-4.811,10.105-10.382,10.105c-5.692,0-10.33-4.606-10.39-10.339
			c0-0.037,0.001-0.071,0.002-0.105c0-0.007,0.002-0.015,0.002-0.022c0-0.007-0.001-0.016,0-0.023
			c0.001-0.041,0.003-0.084,0.004-0.125c0.108-5.612,4.765-10.178,10.381-10.178c5.729,0,10.39,4.662,10.39,10.391V287.644z
			 M256.001,377.54c-12.287,0-24.492-1.02-36.427-3.032c4.136-12.998,7.179-24.638,9.732-34.416
			c1.505-5.764,2.926-11.208,4.319-15.96c0.859-2.939,1.679-5.499,2.503-7.816c5.319-14.923,10.215-17.331,19.871-17.331
			c11.437,0,16.014,3.469,22.365,25.155c1.391,4.747,2.814,10.192,4.319,15.957c2.553,9.778,5.596,21.418,9.732,34.416
			C280.476,376.521,268.273,377.54,256.001,377.54z M300.009,287.837c-0.002-0.069-0.004-0.138-0.007-0.207v-0.089h-0.001
			c0-5.729,4.661-10.391,10.39-10.391c5.617,0,10.279,4.555,10.393,10.156c0.002,0.091,0.005,0.183,0.01,0.274
			c-0.022,5.717-4.68,10.362-10.401,10.362C304.814,297.943,300.157,293.409,300.009,287.837z M313.253,369.897
			c-3.805-11.756-6.654-22.336-9.176-31.963c22.62,7.545,40.198,11.541,53.481,13.544
			C344.251,359.261,329.332,365.473,313.253,369.897z M394.948,320.495c-3.271,3.91-6.907,7.709-10.803,11.345
			c-6.808,0.512-28.317,0.507-69.816-12.908c12.267-1.53,22.37-10.103,26.127-21.536c32.881-1.235,58.185-2.935,73.215-4.103
			C410.843,299.282,405.381,308.044,394.948,320.495z M426.917,214.533c-13.943-3.974-27.701-15.472-34.166-33.716
			c9.355,5.2,20.721,8.5,33.348,6.944c5.276,13.016,14.581,21.095,24.791,24.99C443.848,216.948,434.605,216.725,426.917,214.533z
			 M484.526,184.644c-1.627,2.128-3.495,3.954-5.552,5.425c-3.134,2.241-6.732,3.661-10.401,4.106
			c-9.969,1.206-21.487-4.822-24.752-21.015c-0.001-0.004-0.002-0.01-0.003-0.015c-0.367-1.812-0.623-3.722-0.762-5.691
			c-1.591-22.321-13.065-40.873-33.181-53.649c-0.302-0.191-0.601-0.379-0.903-0.566c30.807-5.114,56.581,7.05,70.626,24.514
			C492.293,153.537,494.226,171.944,484.526,184.644z"/>
	</g>
</g>
</svg>
